<svg width="20" height="20" viewBox="0 0 20 20" fill="none" xmlns="http://www.w3.org/2000/svg">
<path d="M7.16671 10C7.16671 10.6443 6.64437 11.1667 6.00004 11.1667C5.35571 11.1667 4.83337 10.6443 4.83337 10C4.83337 9.35567 5.35571 8.83334 6.00004 8.83334C6.64437 8.83334 7.16671 9.35567 7.16671 10ZM11.1667 10C11.1667 10.6443 10.6444 11.1667 10 11.1667C9.35571 11.1667 8.83337 10.6443 8.83337 10C8.83337 9.35567 9.35571 8.83334 10 8.83334C10.6444 8.83334 11.1667 9.35567 11.1667 10ZM14 11.1667C14.6444 11.1667 15.1667 10.6443 15.1667 10C15.1667 9.35567 14.6444 8.83334 14 8.83334C13.3557 8.83334 12.8334 9.35567 12.8334 10C12.8334 10.6443 13.3557 11.1667 14 11.1667Z" fill="#AFAFAF"/>
</svg>
